Coordinates
version=1
nRows=9
nColumns=24
inDegrees=yes

Units are S.I. units (second, meters, Newtons, ...)
Angles are in degrees.

endheader
time	pelvis_tilt	pelvis_list	pelvis_rotation	pelvis_tx	pelvis_ty	pelvis_tz	hip_flexion_r	hip_adduction_r	hip_rotation_r	knee_angle_r	ankle_angle_r	subtalar_angle_r	mtp_angle_r	hip_flexion_l	hip_adduction_l	hip_rotation_l	knee_angle_l	ankle_angle_l	subtalar_angle_l	mtp_angle_l	lumbar_extension	lumbar_bending	lumbar_rotation
      1.59000000	     53.80701542	    -14.48490574	      0.13332036	      0.43061627	      1.02422271	     -0.35914378	     26.05609815	      2.50863449	      2.73908360	    -16.90650344	     -2.51789581	     42.49451266	      0.00000000	     19.67585634	    -24.16084337	     11.37037932	    -69.22033915	     26.22699529	     29.83461941	      0.00000000	      0.00000000	      0.00000000	      0.00000000
      1.60000000	     53.79204601	    -14.48317131	      0.12141281	      0.43063201	      1.02424760	     -0.35915282	     26.07147886	      2.50980326	      2.74451286	    -16.91297337	     -2.52319787	     42.49642339	      0.00000000	     19.68320087	    -24.15978966	     11.36181862	    -69.21851674	     26.22540433	     29.83473424	      0.00000000	      0.00000000	      0.00000000	      0.00000000
      1.61000000	     53.77740905	    -14.48224303	      0.10961991	      0.43064837	      1.02426510	     -0.35915802	     26.08540370	      2.51170033	      2.75201575	    -16.91628744	     -2.52614259	     42.49944601	      0.00000000	     19.69003466	    -24.15975431	     11.35426859	    -69.21543334	     26.22386522	     29.83407533	      0.00000000	      0.00000000	      0.00000000	      0.00000000
      1.62000000	     53.76593554	    -14.48173581	      0.09946293	      0.43065628	      1.02427103	     -0.35915318	     26.09558690	      2.51403646	      2.76062840	    -16.91639020	     -2.52635863	     42.50200561	      0.00000000	     19.69496996	    -24.16104806	     11.34867905	    -69.21139281	     26.22225806	     29.83285129	      0.00000000	      0.00000000	      0.00000000	      0.00000000
      1.63000000	     53.75908823	    -14.48147640	      0.09215545	      0.43065355	      1.02427490	     -0.35913963	     26.10090577	      2.51632683	      2.76900201	    -16.91399826	     -2.52406324	     42.50289710	      0.00000000	     19.69738203	    -24.16349866	     11.34538187	    -69.20692466	     26.22066332	     29.83131366	      0.00000000	      0.00000000	      0.00000000	      0.00000000
      1.64000000	     53.75666840	    -14.48141724	      0.08838172	      0.43064677	      1.02427921	     -0.35912390	     26.10158251	      2.51803207	      2.77583249	    -16.91032063	     -2.52006770	     42.50141649	      0.00000000	     19.69752521	    -24.16650356	     11.34426622	    -69.20257984	     26.21934982	     29.82967139	      0.00000000	      0.00000000	      0.00000000	      0.00000000
      1.65000000	     53.75726317	    -14.48151977	      0.08808173	      0.43064347	      1.02427706	     -0.35911155	     26.09911545	      2.51854946	      2.78031615	    -16.90666350	     -2.51566649	     42.49740759	      0.00000000	     19.69643964	    -24.16929233	     11.34506587	    -69.19880744	     26.21861153	     29.82803949	      0.00000000	      0.00000000	      0.00000000	      0.00000000
      1.66000000	     53.75903429	    -14.48171968	      0.09042431	      0.43064485	      1.02426922	     -0.35910541	     26.09591143	      2.51721145	      2.78238798	    -16.90409202	     -2.51244828	     42.49123808	      0.00000000	     19.69564339	    -24.17122217	     11.34753381	    -69.19594262	     26.21856231	     29.82643196	      0.00000000	      0.00000000	      0.00000000	      0.00000000
      1.67000000	     53.76030254	    -14.48186253	      0.09415335	      0.43064836	      1.02426400	     -0.35910673	     26.09447063	      2.51358783	      2.78256466	    -16.90327631	     -2.51205180	     42.48370344	      0.00000000	     19.69665958	    -24.17190902	     11.35140698	    -69.19421415	     26.21904200	     29.82478650	      0.00000000	      0.00000000	      0.00000000	      0.00000000
